<svg id="Layer_1" data-name="Layer 1" xmlns="http://www.w3.org/2000/svg" width="700" height="236" viewBox="0 0 700 236"><defs><style>.cls-1{fill:#0069b3;}.cls-2{fill:#1d1d1b;}</style></defs><path class="cls-1" d="M558.2124,197.22h4.2165V180.794h.0629l8.4018,16.4259h5.3809V175.2558h-4.2166v16.4259h-.063l-8.37-16.4259h-5.4123V197.22Zm22.9387,0h4.4054v-9.629h8.8108v9.629h4.4054V175.2558h-4.4054V184.13h-8.8108v-8.8738h-4.4054V197.22Zm34.9285-21.555a16.575,16.575,0,0,0-5.2549-.7867c-3.87,0-7.6781,1.7936-7.6781,6.7025,0,7.2689,9.629,5.5382,9.629,9.7234,0,1.9824-2.2342,2.832-3.9019,2.832a10.604,10.604,0,0,1-4.9719-1.3531l-.409,3.9649a19.3523,19.3523,0,0,0,5.6326.85c4.4368,0,8.2444-1.8251,8.2444-6.64,0-7.3633-9.629-5.7585-9.629-9.566,0-2.3915,1.951-3.0523,3.4614-3.0523a11.3739,11.3739,0,0,1,4.4683.944l.4091-3.6187ZM634.11,197.22h4.4054V178.7172h6.2934v-3.4614H627.8168v3.4614H634.11V197.22Zm10.3275,0h4.2167v-5.9473c0-2.3286,0-6.6081,3.43-6.6081a4.2965,4.2965,0,0,1,1.888.3461v-4.248a4.6012,4.6012,0,0,0-1.29-.1259c-2.5174,0-4.248,2.5488-4.4368,4.0593h-.063v-3.6817h-3.7446V197.22Zm27.03-16.2056h-4.2166v7.93c0,2.0769-.6608,5.3809-3.7131,5.3809-2.7063,0-2.7377-2.6747-2.7377-4.6571v-8.6535h-4.2166v10.2268c0,3.65,1.6678,6.3564,5.5068,6.3564a6.7592,6.7592,0,0,0,5.318-2.58h.0629V197.22h3.9963V181.0143Zm14.2538.22a19.4157,19.4157,0,0,0-4.5942-.5979c-3.304,0-6.3563,1.5419-6.3563,5.0347,0,5.8529,7.3318,3.6817,7.3318,6.86,0,1.5733-1.6993,1.9824-2.7691,1.9824a9.26,9.26,0,0,1-4.1536-1.07l-.2518,3.4614a18.8875,18.8875,0,0,0,4.7831.6923c3.43,0,6.7968-1.51,6.7968-5.2865,0-5.8529-7.3318-4.2166-7.3318-6.7969,0-1.3845,1.353-1.7936,2.4859-1.7936a10.34,10.34,0,0,1,3.776.6923l.2832-3.1782Zm5.4438,11.1079c0,3.21,1.8251,5.255,5.1292,5.255a11.0957,11.0957,0,0,0,3.1152-.3776l-.1259-3.3355a3.7657,3.7657,0,0,1-1.9194.4405c-1.6049,0-1.9825-1.29-1.9825-2.6747v-7.5521h3.7446v-3.0838h-3.7446V176.42l-4.2166,1.3531v3.2411h-3.1152v3.0838h3.1152v8.2444Z"/><path class="cls-1" d="M699.85,105.7606V38.8618H533.7183v66.8988Zm-99.3363-60.444-11.469,53.8477H571.0478L559.7322,61.9049h-.1534l-7.527,37.2594H538.4037l11.56-53.8477h18.0582l11.0922,37.3408h.1526l7.5978-37.3408Zm51.4763,0L640.7451,99.1643H626.2514l4.8074-23.063H613.917L609.11,99.1643H594.6159l11.2448-53.8477h14.4938l-4.2576,20.6011h17.1315l4.2678-20.6011Zm41.6373,1.4691-3.4936,10.7216a27.3847,27.3847,0,0,0-11.9371-2.4631c-5.7341,0-10.3888.841-10.3888,5.1677,0,7.6308,21.0114,4.783,21.0114,21.1381,0,14.8855-13.8818,18.7465-26.4411,18.7465A60.6851,60.6851,0,0,1,645.6343,97.31l3.4119-10.9545c2.8619,1.855,8.6062,3.0909,13.3318,3.0909,4.503,0,11.5508-.8512,11.5508-6.4036,0-8.644-21.0122-5.4021-21.0122-20.5913,0-13.8927,12.2533-18.0572,24.118-18.0572,6.6719,0,12.9464.7,16.5926,2.3913Z"/><path class="cls-2" d="M-.15,123.9592h6.628v19.0793c0,5.633,1.7984,9.3253,6.8638,9.3253s6.865-3.6923,6.865-9.3253V123.9592H26.834V145.074c0,8.8525-5.0178,12.4974-13.4923,12.4974S-.15,153.9265-.15,145.074Z"/><path class="cls-2" d="M33.4146,132.6233h6.0123v3.3138h.0948a9.105,9.105,0,0,1,8-3.8827c5.7758,0,8.2848,4.0717,8.2848,9.5631v15.3862H49.4634V143.9848c0-2.9824-.0474-7.0061-4.119-7.0061-4.5919,0-5.5863,4.9706-5.5863,8.0953v11.93H33.4146Z"/><path class="cls-2" d="M61.9614,122.1133h6.3435v6.06H61.9614Zm0,10.51h6.3435v24.38H61.9614Z"/><path class="cls-2" d="M71.7141,132.6233h6.8171l6.06,17.7531h.0949l5.8706-17.7531h6.343l-8.9942,24.38H80.7562Z"/><path class="cls-2" d="M119.1031,155.6307a16.7472,16.7472,0,0,1-8.38,1.9407c-8.0477,0-12.7345-4.6387-12.7345-12.64,0-7.054,3.74-12.8773,11.3141-12.8773,9.0421,0,11.5985,6.2026,11.5985,14.7238H104.0487c.2838,3.9293,3.0293,6.1545,6.9586,6.1545a16.4485,16.4485,0,0,0,8.0958-2.4622Zm-4.2612-13.208c-.1891-3.0772-1.6094-5.7284-5.1595-5.7284s-5.35,2.4616-5.6337,5.7284Z"/><path class="cls-2" d="M125.6837,132.6233h5.6337v5.5388h.0947c.2839-2.2726,2.8877-6.1077,6.6749-6.1077a6.9183,6.9183,0,0,1,1.9412.19v6.3909a6.4664,6.4664,0,0,0-2.84-.5208c-5.1609,0-5.1609,6.4389-5.1609,9.9423v8.9473h-6.3435Z"/><path class="cls-2" d="M158.6808,137.7361A15.5511,15.5511,0,0,0,153,136.6943c-1.7042,0-3.74.6157-3.74,2.698,0,3.8826,11.0309,1.4211,11.0309,10.2261,0,5.681-5.0654,7.953-10.2255,7.953a28.4352,28.4352,0,0,1-7.1963-1.0412l.3792-5.2076a13.9281,13.9281,0,0,0,6.2488,1.61c1.61,0,4.1665-.6157,4.1665-2.9824,0-4.7815-11.031-1.5152-11.031-10.321,0-5.255,4.5919-7.5749,9.5631-7.5749a29.2036,29.2036,0,0,1,6.9118.9Z"/><path class="cls-2" d="M165.0243,122.1133h6.3435v6.06h-6.3435Zm0,10.51h6.3435v24.38h-6.3435Z"/><path class="cls-2" d="M179.5112,137.262h-4.6867v-4.6387h4.6867V127.747l6.3435-2.0355v6.9118h5.6335v4.6387h-5.6335v11.3621c0,2.0834.5682,4.0242,2.9824,4.0242a5.6688,5.6688,0,0,0,2.8882-.6626l.189,5.018a16.6952,16.6952,0,0,1-4.6867.5677c-4.97,0-7.7164-3.0767-7.7164-7.9055Z"/><path class="cls-2" d="M206.5908,150.4231h.0948l5.87-17.8h6.4383L209.857,156.814c-2.0361,5.3973-3.5032,10.7-10.1313,10.7a16.1367,16.1367,0,0,1-4.497-.6631l.426-4.6867a9.3582,9.3582,0,0,0,3.2669.4261c2.5564,0,4.1178-1.7518,4.1178-4.3555l-9.3253-25.6112h7.006Z"/><path class="cls-2" d="M236.2736,123.9592h6.6285V137.31h13.2561V123.9592h6.6273v33.0445h-6.6273V142.5176H242.9021v14.4861h-6.6285Z"/><path class="cls-2" d="M280.8218,132.0544c7.2443,0,12.7818,4.8763,12.7818,12.9247,0,7.0066-4.6854,12.5923-12.7818,12.5923-8.0484,0-12.7339-5.5857-12.7339-12.5923C268.0879,136.9307,273.6267,132.0544,280.8218,132.0544Zm0,20.5939c4.8763,0,6.1545-4.3555,6.1545-8.4264,0-3.74-1.9875-7.2432-6.1545-7.2432-4.1191,0-6.1065,3.5976-6.1065,7.2432C274.7153,148.2454,275.9935,152.6483,280.8218,152.6483Z"/><path class="cls-2" d="M312.8725,137.7361a15.5524,15.5524,0,0,0-5.6817-1.0418c-1.7042,0-3.74.6157-3.74,2.698,0,3.8826,11.031,1.4211,11.031,10.2261,0,5.681-5.066,7.953-10.2256,7.953A28.4358,28.4358,0,0,1,297.06,156.53l.3794-5.2076a13.9245,13.9245,0,0,0,6.2481,1.61c1.6106,0,4.167-.6157,4.167-2.9824,0-4.7815-11.0309-1.5152-11.0309-10.321,0-5.255,4.5919-7.5749,9.563-7.5749a29.2038,29.2038,0,0,1,6.9119.9Z"/><path class="cls-2" d="M319.0738,132.6233h6.06v3.4553h.0948a8.2664,8.2664,0,0,1,7.5743-4.0242c7.48,0,10.2256,5.9654,10.2256,12.6883,0,6.6748-2.746,12.8287-10.3684,12.8287a8.3321,8.3321,0,0,1-7.1482-3.3605h-.0936v12.7345h-6.3442Zm6.391,12.1194c0,3.4553,1.373,7.9056,5.5869,7.9056,4.1645,0,5.3491-4.5451,5.3491-7.9056,0-3.2669-1.1366-7.764-5.2556-7.764C327.0742,136.9787,325.4648,141.3336,325.4648,144.7427Z"/><path class="cls-2" d="M347.9513,122.1133h6.3441v6.06h-6.3441Zm0,10.51h6.3441v24.38h-6.3441Z"/><path class="cls-2" d="M362.4386,137.262h-4.6879v-4.6387h4.6879V127.747l6.3442-2.0355v6.9118h5.6337v4.6387h-5.6337v11.3621c0,2.0834.5664,4.0242,2.9813,4.0242a5.6629,5.6629,0,0,0,2.8875-.6626l.19,5.018a16.6847,16.6847,0,0,1-4.6853.5677c-4.9713,0-7.7173-3.0767-7.7173-7.9055Z"/><path class="cls-2" d="M379.954,133.9015a21.821,21.821,0,0,1,8.4744-1.8471c7.4327,0,10.51,3.0773,10.51,10.2736v3.124c0,2.4621.048,4.3087.0947,6.1077.0469,1.8458.1417,3.55.2846,5.444h-5.5869a29.8922,29.8922,0,0,1-.2845-3.6449h-.0936a8.7107,8.7107,0,0,1-7.5275,4.2126c-4.3086,0-8.5213-2.6031-8.5213-7.243a7.1629,7.1629,0,0,1,4.1646-6.9586,19.31,19.31,0,0,1,8.19-1.4205h3.5045c0-3.9295-1.7522-5.255-5.4919-5.255a12.7607,12.7607,0,0,0-7.5276,2.6512Zm7.434,19.0312a5.3837,5.3837,0,0,0,4.4489-2.1783,8.08,8.08,0,0,0,1.3262-5.0179h-2.7459c-2.8409,0-7.0547.4734-7.0547,4.2138C383.3625,152.0326,385.1149,152.9327,387.388,152.9327Z"/><path class="cls-2" d="M404.9033,121.4976h6.3442v35.5061h-6.3442Z"/><path class="cls-2" d="M432.2674,137.7361a15.5479,15.5479,0,0,0-5.6816-1.0418c-1.7044,0-3.74.6157-3.74,2.698,0,3.8826,11.0322,1.4211,11.0322,10.2261,0,5.681-5.0673,7.953-10.2268,7.953a28.4259,28.4259,0,0,1-7.1951-1.0412l.378-5.2076a13.9305,13.9305,0,0,0,6.2494,1.61c1.6094,0,4.1657-.6157,4.1657-2.9824,0-4.7815-11.0308-1.5152-11.0308-10.321,0-5.255,4.5919-7.5749,9.5631-7.5749a29.2019,29.2019,0,0,1,6.9117.9Z"/><path class="cls-2" d="M462.85,132.0544c7.243,0,12.7818,4.8763,12.7818,12.9247,0,7.0066-4.6866,12.5923-12.7818,12.5923-8.0484,0-12.7351-5.5857-12.7351-12.5923C450.1153,136.9307,455.6541,132.0544,462.85,132.0544Zm0,20.5939c4.875,0,6.1545-4.3555,6.1545-8.4264,0-3.74-1.9888-7.2432-6.1545-7.2432-4.1191,0-6.1078,3.5976-6.1078,7.2432C456.7426,148.2454,458.0208,152.6483,462.85,152.6483Z"/><path class="cls-2" d="M482.26,137.262h-4.6868v-4.6387H482.26v-3.4091c0-4.8757,2.746-8.2842,7.7638-8.2842a22.348,22.348,0,0,1,4.64.5209l-.5208,5.2543a4.9227,4.9227,0,0,0-2.746-.8521c-2.13,0-2.7928,1.8459-2.7928,3.74v3.03h5.5388v4.6387h-5.5388v19.7417H482.26Z"/><path class="cls-2" d="M511.8008,123.9592h6.6286v27.837h12.8287v5.2075H511.8008Z"/><path class="cls-2" d="M554.5512,155.6307a16.7492,16.7492,0,0,1-8.38,1.9407c-8.0483,0-12.7351-4.6387-12.7351-12.64,0-7.054,3.7411-12.8773,11.3141-12.8773,9.0422,0,11.5985,6.2026,11.5985,14.7238H539.4961c.2845,3.9293,3.0292,6.1545,6.9586,6.1545a16.4489,16.4489,0,0,0,8.0965-2.4622Zm-4.2606-13.208c-.19-3.0772-1.6108-5.7284-5.1608-5.7284s-5.3492,2.4616-5.6337,5.7284Z"/><path class="cls-2" d="M561.1785,122.1133h6.3442v6.06h-6.3442Zm0,10.51h6.3442v24.38h-6.3442Z"/><path class="cls-2" d="M589.6779,137.8777a9.5678,9.5678,0,0,0-4.3073-.899c-3.9294,0-6.4391,3.1241-6.4391,7.716,0,4.4976,2.1316,7.9536,6.5819,7.9536a13.4279,13.4279,0,0,0,4.875-1.1367l.2846,5.2557a20.6944,20.6944,0,0,1-6.3429.8041c-8.0016,0-12.0259-5.444-12.0259-12.8767,0-7.0534,4.167-12.64,11.7882-12.64a20.647,20.647,0,0,1,6.1546.8053Z"/><path class="cls-2" d="M613.9648,155.6307a16.7492,16.7492,0,0,1-8.38,1.9407c-8.0484,0-12.7351-4.6387-12.7351-12.64,0-7.054,3.7411-12.8773,11.3142-12.8773,9.042,0,11.5985,6.2026,11.5985,14.7238H598.91c.2844,3.9293,3.0291,6.1545,6.9586,6.1545a16.4492,16.4492,0,0,0,8.0964-2.4622Zm-4.2606-13.208c-.19-3.0772-1.6108-5.7284-5.1609-5.7284s-5.3491,2.4616-5.6335,5.7284Z"/><path class="cls-2" d="M635.1264,137.7361a15.5463,15.5463,0,0,0-5.68-1.0418c-1.7042,0-3.741.6157-3.741,2.698,0,3.8826,11.0321,1.4211,11.0321,10.2261,0,5.681-5.066,7.953-10.2255,7.953a28.4274,28.4274,0,0,1-7.1963-1.0412l.3781-5.2076a13.9334,13.9334,0,0,0,6.2493,1.61c1.6094,0,4.1658-.6157,4.1658-2.9824,0-4.7815-11.0308-1.5152-11.0308-10.321,0-5.255,4.5919-7.5749,9.5629-7.5749a29.2151,29.2151,0,0,1,6.9132.9Z"/><path class="cls-2" d="M643.4579,137.262h-4.6854v-4.6387h4.6854V127.747l6.3442-2.0355v6.9118h5.6337v4.6387h-5.6337v11.3621c0,2.0834.569,4.0242,2.9824,4.0242a5.6717,5.6717,0,0,0,2.889-.6626l.1883,5.018a16.6945,16.6945,0,0,1-4.6866.5677c-4.9713,0-7.7173-3.0767-7.7173-7.9055Z"/><path class="cls-2" d="M678.8224,155.6307a16.749,16.749,0,0,1-8.38,1.9407c-8.0484,0-12.7339-4.6387-12.7339-12.64,0-7.054,3.74-12.8773,11.3141-12.8773,9.0422,0,11.5985,6.2026,11.5985,14.7238H663.7673c.2846,3.9293,3.0306,6.1545,6.96,6.1545a16.444,16.444,0,0,0,8.0952-2.4622Zm-4.2606-13.208c-.19-3.0772-1.6094-5.7284-5.1608-5.7284s-5.3491,2.4616-5.6337,5.7284Z"/><path class="cls-2" d="M685.4029,132.6233h5.6337v5.5388h.0949c.2831-2.2726,2.8875-6.1077,6.6754-6.1077a6.9166,6.9166,0,0,1,1.9406.19v6.3909a6.4664,6.4664,0,0,0-2.8408-.5208c-5.16,0-5.16,6.4389-5.16,9.9423v8.9473h-6.3442Z"/></svg>